<?xml version="1.0" standalone="no"?>
<!DOCTYPE svg PUBLIC "-//W3C//DTD SVG 20010904//EN"
 "http://www.w3.org/TR/2001/REC-SVG-20010904/DTD/svg10.dtd">
<svg xmlns="http://www.w3.org/2000/svg"
 width="373.000000pt" height="373.000000pt" viewBox="147 0 373 373"
 preserveAspectRatio="xMidYMid meet">
<metadata>
Created by potrace 1.16, written by Peter Selinger 2001-2019
</metadata>
<g transform="translate(0.000000,373.000000) scale(0.100000,-0.100000)"
fill="#000000" stroke="none">
<path d="M3220 3721 c-80 -8 -154 -24 -208 -47 -18 -8 -39 -14 -47 -14 -9 0
-23 -4 -33 -9 -9 -5 -35 -17 -57 -27 -117 -55 -229 -135 -326 -233 -58 -58
-149 -171 -149 -185 0 -3 -13 -24 -28 -48 -28 -41 -42 -72 -84 -183 -62 -163
-77 -415 -37 -605 13 -60 44 -161 58 -188 5 -9 17 -35 27 -57 9 -22 51 -94 92
-160 79 -126 97 -175 87 -236 -8 -45 -72 -116 -130 -143 -22 -10 -48 -22 -57
-27 -36 -18 -148 -37 -253 -44 -196 -11 -280 -41 -365 -130 -121 -129 -144
-313 -57 -464 37 -64 129 -144 197 -172 74 -30 358 -14 489 27 55 17 56 17 41
-1 -7 -8 -18 -15 -25 -15 -8 0 -15 -3 -17 -8 -1 -4 -23 -23 -48 -42 -61 -46
-107 -98 -126 -140 -8 -19 -20 -45 -26 -56 -5 -12 -10 -59 -11 -105 -2 -163
77 -292 223 -368 60 -31 72 -34 160 -34 87 -1 100 1 157 30 57 29 123 71 178
113 45 34 254 246 255 258 0 6 3 12 8 12 4 0 23 23 42 50 19 27 38 50 43 50 4
0 7 5 7 11 0 6 6 16 13 24 28 30 47 56 47 65 0 6 5 10 10 10 6 0 10 5 10 10 0
6 8 18 18 28 10 10 26 29 35 42 l16 24 21 -27 c12 -15 28 -34 36 -41 8 -8 14
-19 14 -25 0 -6 5 -11 10 -11 6 0 10 -4 10 -10 0 -9 19 -35 48 -65 6 -8 12
-18 12 -24 0 -6 3 -11 8 -11 4 0 23 -23 42 -50 19 -27 38 -50 43 -50 4 0 7 -6
7 -12 1 -12 210 -224 255 -258 55 -42 121 -84 178 -113 57 -29 70 -31 157 -30
88 0 100 3 160 34 145 76 224 206 223 366 0 78 -6 100 -46 181 -17 36 -76 93
-150 146 -37 27 -66 50 -65 52 2 2 24 -3 48 -11 127 -40 417 -55 490 -26 63
26 170 115 170 141 0 6 3 10 8 10 11 0 40 58 57 115 39 132 1 270 -105 376
-87 87 -158 113 -350 124 -201 12 -320 52 -397 133 -76 80 -69 145 38 317 85
138 119 205 152 305 66 200 63 489 -7 694 -17 49 -85 194 -108 231 -160 249
-425 444 -673 495 -22 5 -51 13 -65 18 -34 13 -258 21 -350 13z m295 -235 c92
-18 171 -46 238 -82 15 -9 38 -21 50 -27 46 -24 133 -92 182 -142 52 -53 105
-114 105 -121 0 -2 18 -33 40 -69 22 -36 40 -70 40 -75 0 -6 4 -18 9 -28 34
-69 71 -245 71 -340 0 -138 -53 -318 -135 -462 -14 -23 -68 -103 -75 -110 -13
-12 -52 -101 -70 -159 -24 -78 -25 -139 -2 -211 63 -202 239 -319 549 -366 53
-8 117 -14 142 -14 87 0 122 -11 161 -50 41 -41 54 -85 44 -148 -11 -69 -90
-132 -166 -132 -38 0 -187 25 -268 45 -30 8 -77 19 -105 26 -27 7 -61 18 -75
24 -14 7 -50 18 -81 25 -48 11 -64 10 -102 -3 -52 -18 -101 -58 -122 -100 -20
-40 -19 -130 1 -170 20 -38 24 -42 99 -97 33 -25 66 -50 73 -57 7 -7 26 -20
42 -30 17 -9 30 -21 30 -25 0 -4 7 -8 15 -8 8 0 15 -4 15 -8 0 -5 21 -23 46
-42 79 -56 101 -117 70 -191 -15 -36 -56 -79 -93 -98 -77 -40 -182 18 -365
201 -49 48 -88 91 -88 97 0 5 -4 11 -8 13 -5 2 -24 23 -43 48 -19 25 -42 54
-51 65 -9 11 -45 58 -79 105 -77 106 -127 156 -182 180 -57 26 -108 25 -165
-4 -54 -28 -85 -59 -167 -171 -32 -44 -64 -84 -70 -90 -6 -5 -25 -30 -42 -55
-17 -25 -41 -55 -52 -67 -12 -12 -21 -25 -21 -28 0 -7 -165 -173 -202 -202
-76 -61 -153 -103 -191 -103 -116 0 -205 142 -148 236 11 17 40 46 65 64 25
19 46 37 46 42 0 4 7 8 15 8 8 0 15 4 15 8 0 4 13 16 30 25 16 10 35 23 42 30
7 7 40 32 73 57 33 24 65 49 71 55 43 42 58 154 28 213 -19 39 -77 85 -128
102 -41 13 -122 2 -176 -25 -14 -6 -47 -17 -75 -24 -27 -7 -75 -18 -105 -26
-81 -20 -230 -45 -268 -45 -76 0 -155 63 -166 132 -10 63 3 107 44 148 40 40
74 50 169 50 147 0 375 60 485 128 128 79 215 222 216 353 0 64 -58 238 -90
269 -7 7 -61 87 -75 110 -82 144 -135 324 -135 462 0 95 37 271 71 340 5 10 9
22 9 28 0 5 18 39 40 75 22 36 40 67 40 69 0 2 12 19 28 37 151 181 329 290
552 337 69 15 247 14 325 -2z"/>
</g>
</svg>
